<svg width="60" height="19" viewBox="0 0 60 19" fill="none" xmlns="http://www.w3.org/2000/svg">
<path d="M31.2515 4.75204H29.4503L28.4345 6.39925H30.2348L31.2515 4.75204ZM35.9241 9.08614C34.9805 9.1642 33.3134 10.0083 32.4054 11.8526C31.4974 13.6969 31.4941 14.8354 31.4941 14.8354C31.4941 14.8354 31.973 14.3104 32.7071 13.7608C33.4412 13.2111 33.9875 13.0158 33.9875 13.0158C33.9875 13.0158 34.1238 12.3387 34.4628 11.6305C34.7925 10.9416 35.3156 10.2244 35.9629 10.0616C37.275 9.73135 36.6467 12.1262 35.683 13.6878C35.1649 14.5271 33.3276 16.9392 31.7458 16.9392C30.1639 16.9392 29.8587 15.414 30.1923 13.988C30.5256 12.5623 30.9869 10.7508 33.2947 7.45942C35.6025 4.16802 38.1005 2.21674 39.5464 1.39675C41.0314 0.55506 41.6366 0.923919 41.6366 0.923919C41.6366 0.923919 39.7407 2.09167 38.6622 3.49659C37.6309 4.83944 37.0156 6.35043 37.4941 7.09087C37.9498 7.79634 39.556 7.8096 41.3247 5.25591C43.0704 2.73507 42.6295 1.23612 42.6295 1.23612C42.6295 1.23612 42.8405 1.16741 42.9821 1.14843C43.8334 1.03512 44.5154 1.25963 45.5714 1.80117C46.6776 2.36862 47.739 3.27871 49.1934 4.02336C49.6312 3.54361 50.1185 3.03401 50.6311 2.53678C48.6705 1.58238 47.1821 0.222061 45.2592 0.0915742C43.5854 -0.0217357 42.2658 0.588209 42.2658 0.588209C42.2658 0.588209 41.7553 -0.107019 40.1804 0.119902C38.6055 0.347124 33.7534 2.37585 29.6251 8.987C25.8925 14.9644 27.6512 18.3899 30.3342 18.3507C33.2426 18.3079 36.0093 15.0735 36.9457 12.4062C37.882 9.73888 36.7754 9.01593 35.9241 9.08614ZM41.6335 3.53185C41.1447 4.72341 40.4251 5.55606 39.7169 6.19192C38.8086 7.00769 38.3102 6.98027 38.0944 6.81633C37.5309 6.3872 38.287 4.76892 39.5994 3.32181C40.9064 1.88042 42.0316 1.43201 42.0316 1.43201C42.0316 1.44888 42.2188 2.10312 41.6335 3.53185ZM57.8293 1.79423C56.4985 2.65039 54.6533 3.42578 52.8823 3.25491C52.4344 3.7199 51.9541 4.25571 51.4722 4.84185C54.546 5.44818 57.2347 3.54391 58.6662 1.92141C59.5591 0.909755 60 0.0065918 60 0.0065918C60 0.0065918 59.1474 0.94622 57.8293 1.79423Z" fill="#F40009"/>
<path d="M56.3753 9.30633H54.4813L54.1736 9.78187C54.1736 9.78187 53.7873 9.08483 53.133 9.09598C52.012 9.11527 50.89 9.97112 49.5864 11.4556C48.6308 12.5432 47.0468 14.9646 47.0468 14.9646C47.0468 14.9646 45.8315 16.8375 45.2167 16.6908C44.1686 16.4403 46.0964 12.5622 46.0964 12.5622C46.0964 12.5622 47.1098 11.9363 48.4231 10.8312C49.25 10.1357 50.2014 9.17886 51.076 8.29197C51.8712 7.48524 52.8085 6.38981 53.6993 5.18981C53.4711 5.22597 53.2373 5.25038 52.9989 5.26213C52.2 6.31567 51.3472 7.25862 50.6218 8.00809C49.5421 9.12371 48.5488 10.0365 47.827 10.6187C47.1354 11.1762 46.6918 11.4273 46.6918 11.4273C46.6918 11.4273 48.0112 8.71778 50.2102 5.72411C52.4092 2.73075 55.4881 -0.0501669 55.2467 1.26917C55.1777 1.64797 54.9424 2.19132 54.5871 2.83622C54.8372 2.78409 55.0801 2.71899 55.3145 2.64486C55.8443 1.55124 56.0248 0.649883 55.6294 0.389511C54.016 -0.67307 49.9121 3.72371 47.8548 6.2774C45.7977 8.83109 43.9359 12.7337 43.9359 12.7337C43.9359 12.7337 43.6141 12.8687 43.2582 12.9362C43.0337 12.979 42.9378 12.9696 42.9011 12.9551C42.8827 12.9476 42.8806 12.935 42.8806 12.935C42.8806 12.935 44.6902 9.55194 42.8375 9.10322C41.0495 8.67047 37.9516 11.9782 36.8502 14.279C36.0943 15.8575 35.6679 17.8446 36.9641 18.3178C38.3678 18.8304 40.7521 16.2677 41.3126 15.523C41.8731 14.778 42.5729 13.5395 42.5729 13.5395C42.5729 13.5395 42.9152 13.5214 43.1024 13.494C43.4604 13.4412 43.6279 13.3972 43.6279 13.3972C43.6279 13.3972 43.3959 14.0051 43.1449 14.7756C42.6769 16.2125 42.2547 18.2684 43.9395 18.3651C45.013 18.4263 46.5879 16.4876 46.5879 16.4876C46.5879 16.4876 46.1642 18.2114 47.5573 18.3651C48.5859 18.4784 50.0827 16.8893 50.0827 16.8893C50.0827 16.8893 49.7566 18.2584 50.7993 18.379C51.6919 18.4823 52.9591 17.4357 53.9982 16.2842C55.1328 15.027 56.0031 13.6501 56.0031 13.6501H55.3435C55.3435 13.6501 53.8834 15.8662 52.8582 16.4593C52.0165 16.9463 52.3049 16.1661 52.5601 15.7572C52.8416 15.306 56.3744 9.30633 56.3744 9.30663L56.3753 9.30633ZM41.9449 13.4804C41.919 13.5398 41.4449 14.3646 40.9377 15.0131C40.3914 15.712 39.3912 16.7637 38.79 16.5413C37.85 16.1935 38.8843 14.1458 39.5605 13.1525C40.2368 12.1593 40.3136 12.0921 40.3326 12.0661C40.3516 12.0402 40.3706 12.0164 40.3872 12.0472C40.4037 12.0779 40.6189 12.4859 41.0438 12.84C41.4705 13.1956 41.881 13.3834 41.9141 13.3951C41.9473 13.4069 41.9711 13.421 41.9449 13.4801V13.4804ZM42.3677 12.7424C42.3083 12.8412 42.2658 12.8461 42.1426 12.8132C41.9256 12.7544 41.0266 12.3389 41.0336 11.417C41.0399 10.5187 42.3062 9.63873 42.8028 10.0148C43.2663 10.3656 43.0448 11.2624 42.87 11.7199C42.6955 12.177 42.4066 12.6776 42.3677 12.7424ZM50.972 14.9646C50.7219 15.3075 50.5127 15.6173 50.3241 15.8349C49.9209 16.3005 49.6578 16.5172 49.4233 16.5744C49.3052 16.6031 49.1587 16.5961 49.0617 16.5374C48.7175 16.3279 48.9586 15.5125 49.5577 14.4161C50.1059 13.4141 50.7393 12.4115 51.7805 11.2573C52.8259 10.0986 53.2258 10.0428 53.5184 10.0561C53.7647 10.0667 53.7996 10.3255 53.7996 10.3255C53.7996 10.3255 53.7821 10.3855 53.743 10.4533C53.3979 11.0515 51.6597 14.0216 50.9717 14.9646H50.972ZM23.0342 16.4141C21.8857 15.7044 20.4124 15.2491 18.7197 15.2343C14.3591 15.1963 9.61119 17.3149 6.39542 17.3435C2.60256 17.3766 2.41361 14.4586 2.69477 12.8563C3.2999 9.40427 5.74841 6.11105 7.3227 4.37464C8.89728 2.63823 10.5472 1.29087 11.919 0.946417C13.2907 0.601967 13.1618 1.64526 12.9939 1.7878C12.8206 1.79142 12.4882 1.82879 12.2996 1.95927C12.0043 2.16299 11.6098 2.53607 11.5851 3.12763C11.5426 4.03893 12.7203 4.19865 13.5716 2.29046C14.1523 0.988908 13.2314 0.105634 12.4665 0.0206516C11.4175 -0.0962745 9.81431 0.268366 7.9007 1.4982C4.57011 3.63843 0.115168 8.39111 0.00155633 13.6642C-0.0632352 16.6724 1.90191 18.3651 4.59814 18.3651C7.29437 18.3651 10.9549 16.714 14.5293 16.6718C16.7425 16.6528 18.1748 17.4285 18.9002 18.6918C18.9002 18.6918 19.621 17.4927 21.2264 17.4285C22.8145 17.3646 24.563 17.8097 25.9983 18.8186C25.5195 18.1267 24.1658 17.1133 23.0339 16.4141H23.0342Z" fill="#F40009"/>
<path d="M13.1036 4.56747C11.2756 4.10158 8.2397 7.21338 6.96044 9.74597C6.17149 11.3082 5.82553 13.2715 7.23015 13.7823C8.63477 14.2931 11.0179 11.7322 11.5784 10.9876C12.1389 10.2426 13.0563 8.75059 13.0563 8.75059C13.0563 8.75059 13.3377 8.69635 13.5222 8.65356C13.7066 8.61076 14.0046 8.52578 14.0046 8.52578C14.0046 8.52578 13.659 9.14175 13.3471 9.77309C12.9773 10.5217 11.9726 13.0136 13.9124 13.7609C15.7658 14.4748 18.4041 11.4978 18.5428 11.4414C18.5428 11.4414 17.7574 13.4701 18.9773 13.7823C20.3159 14.1247 21.7829 12.4097 21.7829 12.4097C21.7829 12.4097 21.474 13.697 22.517 13.8179C24.3848 14.034 27.6886 9.25657 27.6886 9.25657H27.0286C27.0286 9.25657 25.3474 11.42 24.5388 11.8669C23.7303 12.3138 24.0211 11.5198 24.2408 11.1648C24.521 10.713 28.0927 4.74497 28.0927 4.74497H26.1987L25.979 5.09243C25.979 5.09243 25.5888 4.49665 24.9363 4.53914C23.0381 4.663 20.7794 7.68862 19.7861 9.02212C18.7932 10.3559 16.6508 12.9024 15.5229 12.4485C14.2936 11.9537 15.5159 9.68208 16.3245 8.34828C17.2047 6.89635 18.7649 5.45828 19.3817 5.44713C20.1408 5.43297 19.8428 6.12096 19.8428 6.12096C19.8428 6.12096 19.2753 6.05014 18.864 6.56787C18.5729 6.93402 18.3318 7.46863 18.6084 7.75943C19.0554 8.22925 19.6373 7.7522 19.9847 7.22001C21.0681 5.56165 20.2755 4.68771 19.4245 4.56024C17.6116 4.28812 15.9414 6.6173 14.6718 7.48279C13.791 8.08279 13.423 8.03608 13.423 8.03608C13.423 8.03608 14.9512 5.03819 13.1039 4.56717L13.1036 4.56747ZM21.311 9.9304C21.8592 8.92809 22.6059 7.96044 23.5778 6.74748C24.5497 5.53452 25.0334 5.43628 25.326 5.44954C25.5722 5.46039 25.6071 5.71895 25.6071 5.71895C25.6071 5.71895 23.4955 9.39821 22.7295 10.4481C22.4794 10.7911 22.2654 11.0816 22.0768 11.2995C21.6735 11.7651 21.3806 11.9902 21.1546 12.0462C21.0365 12.0752 20.89 12.0679 20.7927 12.0089C20.4485 11.7994 20.711 11.0264 21.3107 9.9304H21.311ZM12.3493 8.73643C12.3231 8.7955 11.7201 9.79268 11.2132 10.4412C10.6671 11.14 9.65788 12.196 9.05667 11.9736C8.11674 11.6258 9.11935 9.59228 9.7956 8.59931C10.4718 7.60604 10.571 7.47827 10.5903 7.45265C10.6093 7.42644 10.6279 7.40263 10.6445 7.43367C10.6611 7.46441 10.8763 7.9068 11.3422 8.20454C11.8081 8.50258 12.2857 8.63969 12.3188 8.65145C12.352 8.6632 12.3758 8.67767 12.3496 8.73643H12.3493ZM13.1355 7.18415C12.9607 7.64191 12.8046 7.9303 12.7724 7.99841C12.7206 8.1075 12.5907 8.07254 12.5907 8.07254C12.4427 8.06591 11.2924 7.80343 11.2991 6.88158C11.3054 5.98324 12.572 5.10328 13.0683 5.47938C13.5318 5.83015 13.3103 6.72699 13.1355 7.18415ZM54.9502 17.2714C54.8396 17.2087 54.7166 17.1777 54.5813 17.1777C54.446 17.1777 54.323 17.2091 54.2124 17.2714C54.1018 17.3341 54.015 17.4191 53.9515 17.5273C53.8882 17.6352 53.8562 17.7527 53.8562 17.8793C53.8562 18.0058 53.8879 18.1255 53.9515 18.2328C54.0147 18.3397 54.1018 18.4247 54.2124 18.4871C54.323 18.5498 54.446 18.5808 54.5813 18.5808C54.7166 18.5808 54.8396 18.5495 54.9502 18.4871C55.0608 18.4247 55.1475 18.3397 55.2111 18.2328C55.2744 18.1258 55.3064 18.0079 55.3064 17.8793C55.3064 17.7506 55.2747 17.6352 55.2111 17.5273C55.1478 17.4194 55.0608 17.3341 54.9502 17.2714ZM55.08 18.1698C55.0321 18.2554 54.9646 18.3226 54.8781 18.3717C54.7916 18.4205 54.6925 18.4449 54.5813 18.4449C54.4701 18.4449 54.3709 18.4205 54.2845 18.3717C54.198 18.3229 54.1308 18.2557 54.0826 18.1698C54.0346 18.0842 54.0105 17.9872 54.0105 17.8793C54.0105 17.7714 54.0346 17.6771 54.0826 17.5915C54.1305 17.5059 54.1983 17.4387 54.2857 17.3896C54.3731 17.3404 54.4716 17.3163 54.5813 17.3163C54.691 17.3163 54.7895 17.3407 54.8769 17.3896C54.9643 17.4384 55.0321 17.5056 55.08 17.5915C55.128 17.6771 55.1521 17.7732 55.1521 17.8793C55.1521 17.9853 55.128 18.0842 55.08 18.1698Z" fill="#F40009"/>
<path d="M54.8538 17.8679C54.8742 17.8344 54.8845 17.7971 54.8845 17.7561C54.8845 17.6994 54.8661 17.6521 54.8293 17.6135C54.7926 17.575 54.7432 17.5557 54.6817 17.5557H54.314V18.1906H54.4759V17.9592H54.5991L54.7483 18.1906H54.9333L54.7664 17.9438C54.804 17.9266 54.8333 17.9013 54.8538 17.8679ZM54.6995 17.801C54.6874 17.8121 54.6711 17.8175 54.6506 17.8175H54.4759V17.6943H54.6506C54.6711 17.6943 54.6874 17.7 54.6995 17.7109C54.7115 17.722 54.7175 17.7371 54.7175 17.7558C54.7175 17.7744 54.7115 17.7895 54.6995 17.8007V17.801Z" fill="#F40009"/>
</svg>
